<svg width="23" height="23" viewBox="0 0 23 23" fill="none" xmlns="http://www.w3.org/2000/svg">
<g clip-path="url(#clip0_1_1626)">
<path opacity="0.4" d="M9.25791 16.6616C13.3468 16.6616 16.6621 13.3463 16.6621 9.25742C16.6621 5.16785 13.3468 1.85254 9.25791 1.85254C5.16834 1.85254 1.85303 5.16785 1.85303 9.25742C1.85303 13.3463 5.16834 16.6616 9.25791 16.6616Z" fill="#1A392E"/>
<path d="M20.3597 14.8178C20.3597 17.876 17.8763 20.3593 14.8182 20.3593C13.9237 20.3597 13.0424 20.1433 12.2498 19.7284C11.4573 19.3136 10.7772 18.7127 10.2678 17.9774C14.308 17.5236 17.5239 14.3077 17.9778 10.2674C18.7131 10.7768 19.3139 11.4569 19.7288 12.2495C20.1436 13.042 20.3601 13.9233 20.3597 14.8178ZM10.6104 8.9983L8.38634 8.21986C8.16393 8.14549 8.11806 8.12742 8.11806 7.80284C8.11806 7.56166 8.28487 7.36705 8.49755 7.36705H9.88761C10.1844 7.36705 10.4256 7.63603 10.4256 7.96965C10.4256 8.34914 10.7404 8.66468 11.1206 8.66468C11.5001 8.66468 11.8156 8.34914 11.8156 7.96965C11.8156 6.90416 10.9906 6.03259 9.96198 5.98672V5.94015C9.96198 5.55997 9.64713 5.24512 9.26695 5.24512C8.88677 5.24512 8.57192 5.55093 8.57192 5.94015V5.98672H8.48851C7.51546 5.98672 6.71826 6.80199 6.71826 7.81187C6.71826 8.69248 7.10748 9.25754 7.91372 9.53556L10.1476 10.314C10.37 10.3884 10.4158 10.4064 10.4158 10.731C10.4158 10.9722 10.249 11.1668 10.0364 11.1668H8.64628C8.3495 11.1668 8.10833 10.8978 8.10833 10.5642C8.10833 10.1847 7.79348 9.86917 7.41329 9.86917C7.03381 9.86917 6.71826 10.1847 6.71826 10.5642C6.71826 11.6304 7.54327 12.5013 8.57192 12.5478V12.6034C8.57192 12.9829 8.88677 13.2985 9.26695 13.2985C9.64713 13.2985 9.96198 12.9829 9.96198 12.6034V12.5569H10.0454C11.0184 12.5569 11.8156 11.7409 11.8156 10.731C11.8156 9.8511 11.4167 9.28535 10.6104 8.9983Z" fill="#1A392E"/>
</g>
<defs>
<clipPath id="clip0_1_1626">
<rect width="22.2411" height="22.2411" fill="white"/>
</clipPath>
</defs>
</svg>
